<svg xmlns="http://www.w3.org/2000/svg" viewBox="0 0 25 25"><path fill="#d85b53" d="M6.892 19H1.595a.998.998 0 0 1-.846-.467l-.595-.944a.997.997 0 0 1 .35-1.401l3.892-2.224a1 1 0 0 1 1.342.334l2 3.168A1.002 1.002 0 0 1 6.892 19zm-3.779-2h1.965l-.521-.825L3.113 17z" class="colorde002a svgShape"/><path fill="#d45985" d="M24 19h-5.298c-.343 0-.663-.176-.846-.466l-5.535-8.775a1.002 1.002 0 0 1 .349-1.401l3.888-2.225a.999.999 0 0 1 1.342.334l6.945 11A1.002 1.002 0 0 1 24 19zm-4.746-2h2.932l-5.465-8.657-2.15 1.231L19.254 17zm-3.739 2h-5.294c-.343 0-.662-.176-.846-.466l-3.068-4.858a1.002 1.002 0 0 1 .348-1.401l3.892-2.229a1 1 0 0 1 1.343.334l4.47 7.086A1.002 1.002 0 0 1 15.515 19zm-4.743-2h2.93l-2.992-4.743-2.154 1.234L10.772 17z" class="color583689 svgShape"/></svg>