<svg xmlns="http://www.w3.org/2000/svg" width="44" height="52" viewBox="0 0 44 52"><path fill="#231300" fill-rule="nonzero" d="M16.945 4.311a7.409 7.409 0 0 0-4.14-3.81c-1.85-.56-3.9-.13-6.14 1.31-.2.17-5.11 4.24-6.05 14.28a50.98 50.98 0 0 0 1.19 14.57v.03l.06.21c.03.6.26 5.2.74 9.23.025 1.618.28 3.225.76 4.77a7.74 7.74 0 0 0 2.71 5.5 6.825 6.825 0 0 0 4.2 1.36c.335.005.67-.019 1-.07a7.234 7.234 0 0 0 6.14-7.49 6.303 6.303 0 0 0-.06-.94c-.05-7.98.52-14.99.68-16.78a.2.2 0 0 1 .01-.08c.25-1.28 2.76-15.12-1.1-22.09zm-13.8 29.33c-.01.04-.04.2-.09.46-.13-1.9-.2-3.26-.2-3.3l-.01-.1a1.636 1.636 0 0 1-.05-.21c.06-2.88.55-10.52 2.16-12.38.02-.02 1.18-1.64 4.25-1.84-.1.23-.22.51-.35.84h-1.46a.91.91 0 0 0-.9-.1.823.823 0 0 0-.58 1c.127.28.414.452.72.43.13.001.26-.022.38-.07a1.04 1.04 0 0 0 .5-.39c.031-.054.058-.111.08-.17h.99a7 7 0 0 1-.16.42.01.01 0 0 0-.01.01.967.967 0 0 1-.07.22c-.07.21-.15.41-.22.63l-1.39.54a.968.968 0 0 0-.87-.07.809.809 0 0 0-.57 1c.12.281.406.455.71.43.13.003.26-.021.38-.07a.995.995 0 0 0 .5-.4.715.715 0 0 0 .1-.24l.86-.33c-.19.59-.37 1.2-.53 1.82l-1.21.37a.937.937 0 0 0-.87-.08.815.815 0 0 0-.57 1.01c.124.278.407.45.71.43.13-.002.258-.026.38-.07a.958.958 0 0 0 .5-.4.673.673 0 0 0 .1-.23l.78-.24a18.878 18.878 0 0 0-.33 1.92l-1.33.41a.918.918 0 0 0-.86-.08.992.992 0 0 0-.56.5.665.665 0 0 0-.02.5.72.72 0 0 0 .71.43c.134.002.266-.022.39-.07a.898.898 0 0 0 .59-.63l1.02-.31a8.536 8.536 0 0 0 .1 2.05 19.21 19.21 0 0 0-2.5 3.49c-.01.03-.03.06-.04.09a12.072 12.072 0 0 0-1.16 2.78zm7.11-15.83c.05.13.1.26.15.4l-.69.26-.27-.1c.07-.2.14-.38.21-.56h.6zm-.32-.7a.145.145 0 0 0 .02-.06.14.14 0 0 0 .02.06h-.04zm-.22 2.11l1.22.47c.09.28.19.57.28.87l-1.4.43-1.14-.36c.12-.39.25-.78.37-1.15l.67-.26zm.92-.39l.05.02-.04.01c0-.01-.01-.02-.01-.03zm1.53 8.95a18.85 18.85 0 0 1 2.29 3.07 11.276 11.276 0 0 1-9.06.09 19.001 19.001 0 0 1 2.35-3.16l.19-.2-.07-.26a7.502 7.502 0 0 1-.1-2.4l2.06-.62h.01l2.32.69a7.62 7.62 0 0 1-.11 2.33l-.07.26.19.2zm-4.31-3.62c.02-.14.04-.29.07-.43l.69.2-.76.23zm3.19-.23l.93-.29c.04.2.07.4.09.59l-1.02-.3zm-1.21-.37h-.01l-1.77-.52c.049-.276.112-.55.19-.82l1.56-.49 1.9.61c.05.2.09.41.14.61l-2.01.61zm-1.39-2.14l.03-.12.17.06-.2.06zm2.52-.05l.45-.14.09.31-.54-.17zm-3.84-3.82c.011.056 0 .113-.03.16a.524.524 0 0 1-.26.19.503.503 0 0 1-.2.04.263.263 0 0 1-.25-.11c-.04-.1.08-.27.29-.36a.792.792 0 0 1 .2-.04c.1-.012.198.035.25.12zm-.65 2.69c-.01.01-.01.01-.01.02a.524.524 0 0 1-.26.19.45.45 0 0 1-.2.04.262.262 0 0 1-.25-.11c-.04-.1.08-.28.29-.36a.778.778 0 0 1 .21-.04.509.509 0 0 1 .13.02.16.16 0 0 1 .11.1c.03.04 0 .1-.02.14zm-.63 2.5v.01l-.01.01a.46.46 0 0 1-.25.2.517.517 0 0 1-.21.04.283.283 0 0 1-.25-.11c-.03-.1.08-.28.29-.36a.517.517 0 0 1 .34-.02c.06.02.1.05.11.09.02.047.013.101-.02.14zm-.6 2.61c.018.048.01.1-.02.14a.6.6 0 0 1-.48.25c-.12 0-.22-.04-.24-.11a.126.126 0 0 1 .01-.12.485.485 0 0 1 .28-.24.645.645 0 0 1 .2-.04.515.515 0 0 1 .13.02.205.205 0 0 1 .12.1zm.27 21.65a8.104 8.104 0 0 1-1.08-2.04.216.216 0 0 1-.04.15c-.02-.13-.04-.27-.05-.4l-.15-.48.1-.01a37.136 37.136 0 0 1-.68-4.06 28.968 28.968 0 0 1 .5-6.28c.226-.806.541-1.584.94-2.32a11.619 11.619 0 0 0 4.76 1.01 11.942 11.942 0 0 0 5-1.11c.413.76.742 1.56.98 2.39.02.09 1.83 8.8-1.4 13.15a5.319 5.319 0 0 1-8.88 0zm5.57 3.71a6.172 6.172 0 0 1-4.4-1.1 4.73 4.73 0 0 1-.78-.77 7.037 7.037 0 0 0 3.79 1.53 1.244 1.244 0 0 0 .53 0 6.897 6.897 0 0 0 4.97-2.78 8.937 8.937 0 0 0 1.13-2.06 6.114 6.114 0 0 1-5.24 5.18zm6-24.77c0 .01-.01.08-.02.21 0 .05-.01.11-.01.18-.09.91-.3 3.38-.46 6.74a17.716 17.716 0 0 0-3.52-5.79 8.57 8.57 0 0 0 .1-1.99l.86.26c.02.081.05.158.09.23.122.18.297.316.5.39.125.048.257.072.39.07a.72.72 0 0 0 .71-.43.816.816 0 0 0-.58-1 .917.917 0 0 0-.86.08l-1.17-.35c-.07-.6-.17-1.22-.3-1.84l.3.09c.02.085.055.166.1.24.119.185.294.326.5.4.123.042.251.066.38.07a.749.749 0 0 0 .72-.43.83.83 0 0 0-.58-1.01.937.937 0 0 0-.87.08l-.73-.23c-.15-.6-.32-1.2-.5-1.76l.36.14c.02.08.05.158.09.23a.997.997 0 0 0 .5.4c.125.048.257.072.39.07a.72.72 0 0 0 .71-.43.815.815 0 0 0-.58-1 .946.946 0 0 0-.86.07l-.88-.33c-.18-.54-.36-1.04-.54-1.49h.56c.02.06.048.117.08.17.118.18.29.316.49.39.125.048.258.072.39.07a.72.72 0 0 0 .71-.43.808.808 0 0 0-.57-1 .91.91 0 0 0-.9.1h-1.02c-.13-.32-.25-.59-.34-.82h.06c.04 0 4.04-.41 5.1 1.68a28.458 28.458 0 0 1 1.2 7.97zm-2.57-.59a.205.205 0 0 1 .12-.1.517.517 0 0 1 .13-.02.782.782 0 0 1 .21.04c.21.09.32.26.28.36-.04.11-.26.15-.45.07a.494.494 0 0 1-.25-.19c0-.01-.01-.01-.01-.02a.144.144 0 0 1-.03-.14zm-.91-2.75a.283.283 0 0 1 .25-.11h.01c.066 0 .13.014.19.04.21.08.33.26.29.36-.04.1-.26.14-.45.07a.418.418 0 0 1-.17-.11h-.01a.692.692 0 0 1-.08-.09.204.204 0 0 1-.03-.16zm-.63-2.5a.205.205 0 0 1 .12-.1.508.508 0 0 1 .13-.02.645.645 0 0 1 .2.04c.22.08.33.26.29.36-.04.1-.26.15-.45.07a.494.494 0 0 1-.25-.19c0-.01-.01-.01-.01-.02a.15.15 0 0 1-.03-.14zm-.63-2.55a.265.265 0 0 1 .25-.12.782.782 0 0 1 .21.04c.21.09.32.26.28.36-.04.1-.26.15-.45.07a.495.495 0 0 1-.25-.19c-.02-.04-.06-.11-.04-.16zm5.38 3.92a34.69 34.69 0 0 0-.92-3.87c-1.39-2.78-5.93-2.32-6.03-2.3-.24-.02-.47-.04-.7-.04h-.04c-.02 0-.05-.01-.07-.01h-.06c-4.09-.06-5.69 2.18-5.74 2.25-1.29 1.48-1.88 5.7-2.15 8.94a51.777 51.777 0 0 1-.41-10.26c.91-9.59 5.65-13.55 5.65-13.56a7.39 7.39 0 0 1 3.93-1.35c.448-.002.892.062 1.32.19a6.449 6.449 0 0 1 3.54 3.29c2.42 4.38 2.18 11.83 1.68 16.72zm8.21 4.93a.2.2 0 0 1 .009.08c.16 1.79.73 8.8.68 16.78a6.303 6.303 0 0 0-.06.94 7.234 7.234 0 0 0 6.14 7.49c.331.051.666.075 1 .07a6.826 6.826 0 0 0 4.2-1.36 7.74 7.74 0 0 0 2.71-5.5c.48-1.545.736-3.152.76-4.77.48-4.03.71-8.63.74-9.23l.06-.21v-.03a50.98 50.98 0 0 0 1.19-14.57c-.94-10.04-5.85-14.11-6.05-14.28-2.24-1.44-4.29-1.87-6.14-1.31a7.409 7.409 0 0 0-4.14 3.81c-3.86 6.97-1.35 20.81-1.1 22.09zm13.739 4.46c-.01-.03-.03-.06-.04-.09a19.21 19.21 0 0 0-2.5-3.49c.116-.676.15-1.365.1-2.05l1.02.31a.898.898 0 0 0 .59.63c.125.048.257.072.39.07a.72.72 0 0 0 .71-.43.665.665 0 0 0-.02-.5.992.992 0 0 0-.56-.5.918.918 0 0 0-.86.08l-1.33-.41a18.878 18.878 0 0 0-.33-1.92l.78.24c.019.083.053.161.1.23a.958.958 0 0 0 .5.4c.122.044.25.068.38.07a.725.725 0 0 0 .71-.43.815.815 0 0 0-.57-1.01.937.937 0 0 0-.87.08l-1.21-.37c-.16-.62-.34-1.23-.53-1.82l.86.33a.715.715 0 0 0 .1.24.995.995 0 0 0 .5.4c.121.049.25.073.38.07.305.025.59-.149.71-.43a.809.809 0 0 0-.57-1 .968.968 0 0 0-.87.07l-1.39-.54c-.07-.22-.15-.42-.22-.63a.967.967 0 0 1-.073-.227.01.01 0 0 0-.007-.003c-.06-.14-.11-.28-.16-.42h.99c.023.059.05.116.08.17.122.18.297.316.5.39.121.048.25.071.38.07a.734.734 0 0 0 .72-.43.823.823 0 0 0-.58-1 .91.91 0 0 0-.9.1h-1.46c-.13-.33-.25-.61-.35-.84 3.07.2 4.23 1.82 4.25 1.84 1.61 1.86 2.1 9.5 2.16 12.38a1.634 1.634 0 0 1-.05.21l-.01.1c0 .04-.07 1.4-.2 3.3-.05-.26-.08-.42-.09-.46a12.072 12.072 0 0 0-1.16-2.78zm-5.35-13.05c.07.18.14.36.21.56l-.27.1-.69-.26c.05-.14.1-.27.15-.4h.6zm-.32-.7a.14.14 0 0 0 .02-.06c.002.022.01.042.02.06h-.04zm.93 2.37c.12.37.25.76.37 1.15l-1.14.36-1.4-.43c.09-.3.19-.59.28-.87l1.22-.47.67.26zm-1.6-.62l-.04-.01.05-.02c0 .01-.01.02-.01.03zm-1.33 8.72l-.07-.26a7.62 7.62 0 0 1-.11-2.33l2.32-.69h.01l2.06.62c.096.8.062 1.61-.1 2.4l-.07.26.19.2c.89.97 1.678 2.029 2.35 3.16a11.276 11.276 0 0 1-9.06-.09 18.85 18.85 0 0 1 2.29-3.07l.19-.2zm3.36-3.65l.69-.2c.03.14.05.29.07.43l-.76-.23zm-3.45.3c.02-.19.05-.39.09-.59l.93.29-1.02.3zm.22-1.28c.05-.2.09-.41.14-.61l1.9-.61 1.56.49c.079.27.142.544.19.82l-1.77.52h-.01l-2.01-.61zm3.2-1.59l.17-.06.03.12-.2-.06zm-2.86.18l.09-.31.45.14-.54.17zm4.63-4.11a.79.79 0 0 1 .2.04c.21.09.33.26.29.36a.263.263 0 0 1-.25.11.503.503 0 0 1-.2-.04.524.524 0 0 1-.26-.19.223.223 0 0 1-.03-.16.255.255 0 0 1 .25-.12zm.38 2.67a.16.16 0 0 1 .11-.1.509.509 0 0 1 .13-.02.778.778 0 0 1 .21.04c.21.08.33.26.29.36a.262.262 0 0 1-.25.11.45.45 0 0 1-.2-.04.524.524 0 0 1-.26-.19c0-.01 0-.01-.01-.02-.02-.04-.05-.1-.02-.14zm.63 2.5c.01-.04.05-.07.11-.09a.498.498 0 0 1 .34.02c.21.08.32.26.29.36a.283.283 0 0 1-.25.11.517.517 0 0 1-.21-.04.46.46 0 0 1-.25-.2l-.01-.01v-.01a.137.137 0 0 1-.02-.14zm.74 2.65a.515.515 0 0 1 .13-.02.646.646 0 0 1 .2.04c.121.04.222.127.28.24.023.036.027.081.01.12-.02.07-.12.11-.24.11a.6.6 0 0 1-.48-.25.148.148 0 0 1-.02-.14.205.205 0 0 1 .12-.1zm-4.84 24.14a5.977 5.977 0 0 1-4.43-2.39c-3.23-4.35-1.42-13.06-1.4-13.15.239-.83.568-1.63.98-2.39a11.942 11.942 0 0 0 5 1.11c1.64.003 3.262-.34 4.76-1.01.4.736.715 1.514.94 2.32.395 2.07.562 4.175.5 6.28a37.134 37.134 0 0 1-.68 4.06l.1.01-.15.48c-.01.13-.03.27-.05.4a.216.216 0 0 1-.04-.15 8.104 8.104 0 0 1-1.08 2.04 5.984 5.984 0 0 1-4.45 2.39zm-6.36-3.86a8.937 8.937 0 0 0 1.13 2.06 6.897 6.897 0 0 0 4.97 2.78 1.154 1.154 0 0 0 .53 0 7.037 7.037 0 0 0 3.79-1.53 4.73 4.73 0 0 1-.78.77 6.125 6.125 0 0 1-9.64-4.08zm.44-27.56c1.06-2.09 5.06-1.68 5.1-1.68h.06c-.09.23-.21.5-.34.82h-1.02a.91.91 0 0 0-.9-.1.808.808 0 0 0-.57 1 .72.72 0 0 0 .71.43c.133.002.265-.022.39-.07.2-.074.372-.21.49-.39a.857.857 0 0 0 .08-.17h.56c-.18.45-.36.95-.54 1.49l-.88.33a.946.946 0 0 0-.86-.07.815.815 0 0 0-.58 1 .72.72 0 0 0 .71.43c.133.002.266-.022.39-.07a.997.997 0 0 0 .5-.4c.04-.072.07-.15.09-.23l.36-.14c-.18.56-.35 1.16-.5 1.76l-.73.23a.937.937 0 0 0-.87-.08.83.83 0 0 0-.58 1.01c.13.277.415.448.72.43.13-.004.257-.028.38-.07.206-.074.382-.215.5-.4a.825.825 0 0 0 .1-.24l.3-.09c-.13.62-.23 1.24-.3 1.84l-1.17.35a.917.917 0 0 0-.86-.08.816.816 0 0 0-.58 1 .72.72 0 0 0 .71.43c.133.002.266-.022.39-.07.203-.074.378-.21.5-.39.04-.072.07-.149.09-.23l.86-.26a8.576 8.576 0 0 0 .1 1.99 17.716 17.716 0 0 0-3.52 5.79c-.16-3.36-.37-5.83-.46-6.74 0-.07-.01-.13-.01-.18-.01-.13-.02-.2-.02-.21.02-2.7.424-5.383 1.2-7.97zm1.34 7.52c0 .01-.01.01-.01.02a.494.494 0 0 1-.25.19c-.19.08-.41.04-.45-.07-.04-.1.07-.27.28-.36a.782.782 0 0 1 .21-.04.517.517 0 0 1 .13.02.205.205 0 0 1 .12.1.144.144 0 0 1-.03.14zm.91-2.73a.692.692 0 0 1-.08.09h-.01a.418.418 0 0 1-.17.11c-.19.07-.41.03-.45-.07-.04-.1.08-.28.29-.36a.461.461 0 0 1 .19-.04h.01a.283.283 0 0 1 .25.11.204.204 0 0 1-.03.16zm.63-2.52c0 .01-.01.01-.01.02a.494.494 0 0 1-.25.19c-.19.08-.41.03-.45-.07-.04-.1.07-.28.29-.36a.646.646 0 0 1 .2-.04.509.509 0 0 1 .13.02.205.205 0 0 1 .12.1.15.15 0 0 1-.03.14zm.62-2.53a.495.495 0 0 1-.25.19c-.19.08-.41.03-.45-.07-.04-.1.07-.27.28-.36a.782.782 0 0 1 .21-.04c.1-.01.196.037.25.12.02.05-.02.12-.04.16zm-3.66-12.96a6.449 6.449 0 0 1 3.54-3.29 4.488 4.488 0 0 1 1.32-.19 7.39 7.39 0 0 1 3.93 1.35c0 .01 4.74 3.97 5.65 13.56a51.777 51.777 0 0 1-.41 10.26c-.27-3.24-.86-7.46-2.15-8.94-.05-.07-1.65-2.31-5.74-2.25h-.06c-.02 0-.05.01-.07.01h-.04c-.23 0-.46.02-.7.04-.1-.02-4.64-.48-6.03 2.3a34.688 34.688 0 0 0-.92 3.87c-.5-4.89-.74-12.34 1.68-16.72z"/></svg>